<svg width="522" height="128" viewBox="0 0 522 128" fill="none" xmlns="http://www.w3.org/2000/svg">
<path d="M522 0H0V128H522V0Z" fill="#174DA3"/>
<path d="M444.319 86.4867V80.6056H455.666V44.0737H444.319V38.1926H474.762V44.0737H463.415V80.6056H474.762V86.4867H444.319Z" fill="#FFC700"/>
<path d="M429.263 86.4867L425.596 73.6175H410.236L406.569 86.4867H398.681L412.796 38.1926H423.382L437.496 86.4867H429.263ZM418.192 46.011H417.639L411.689 67.1829H424.143L418.192 46.011Z" fill="#FFC700"/>
<path d="M366.12 69.1893V61.6477H387.015V69.1893H366.12Z" fill="white"/>
<path d="M321.797 86.4867V38.1926H329.546V79.9829H351.548V86.4867H321.797Z" fill="white"/>
<path d="M278.65 86.4867V38.1926H296.708C301.321 38.1926 304.826 39.4842 307.225 42.0672C309.67 44.6503 310.892 48.202 310.892 52.7224C310.892 57.2427 309.67 60.7944 307.225 63.3775C304.826 65.9606 301.321 67.2521 296.708 67.2521H286.399V86.4867H278.65ZM286.399 60.8175H295.532C300.329 60.8175 302.728 58.6034 302.728 54.1753V51.2002C302.728 46.8182 300.329 44.6272 295.532 44.6272H286.399V60.8175Z" fill="white"/>
<path d="M262.141 63.3775L262.348 48.8478H261.795L252.108 73.6867L242.422 48.8478H241.868L242.076 63.3775V86.4867H235.226V38.1926H244.705L252.108 57.358H252.592L260.065 38.1926H268.99V86.4867H262.141V63.3775Z" fill="white"/>
<path d="M210.622 87.3169C207.577 87.3169 204.925 86.7634 202.665 85.6564C200.451 84.5032 198.606 82.8657 197.13 80.7439C195.7 78.6221 194.639 76.016 193.947 72.9256C193.255 69.8351 192.909 66.3065 192.909 62.3396C192.909 58.4189 193.255 54.9133 193.947 51.8228C194.639 48.6863 195.7 46.0571 197.13 43.9353C198.606 41.8135 200.451 40.1991 202.665 39.092C204.925 37.9389 207.577 37.3623 210.622 37.3623C213.666 37.3623 216.295 37.9389 218.509 39.092C220.769 40.1991 222.614 41.8135 224.044 43.9353C225.52 46.0571 226.604 48.6863 227.296 51.8228C227.988 54.9133 228.334 58.4189 228.334 62.3396C228.334 66.3065 227.988 69.8351 227.296 72.9256C226.604 76.016 225.52 78.6221 224.044 80.7439C222.614 82.8657 220.769 84.5032 218.509 85.6564C216.295 86.7634 213.666 87.3169 210.622 87.3169ZM210.622 80.8823C214.081 80.8823 216.526 79.5908 217.956 77.0077C219.386 74.3785 220.101 70.8268 220.101 66.3526V58.2574C220.101 53.8293 219.386 50.3237 217.956 47.7407C216.526 45.1115 214.081 43.7969 210.622 43.7969C207.162 43.7969 204.717 45.1115 203.288 47.7407C201.858 50.3237 201.143 53.8293 201.143 58.2574V66.4218C201.143 70.8499 201.858 74.3785 203.288 77.0077C204.717 79.5908 207.162 80.8823 210.622 80.8823Z" fill="white"/>
<path d="M170.519 87.3169C164.384 87.3169 159.818 85.149 156.819 80.8131C153.867 76.4773 152.391 70.3194 152.391 62.3396C152.391 54.3598 153.867 48.2019 156.819 43.8661C159.818 39.5302 164.384 37.3623 170.519 37.3623C172.871 37.3623 174.901 37.6852 176.608 38.331C178.36 38.9306 179.859 39.7839 181.105 40.891C182.35 41.9519 183.388 43.2203 184.218 44.6964C185.095 46.1263 185.81 47.6715 186.363 49.332L179.375 51.6845C179.006 50.5774 178.591 49.5396 178.13 48.571C177.668 47.6023 177.092 46.772 176.4 46.0801C175.708 45.3882 174.878 44.8347 173.909 44.4196C172.987 44.0045 171.834 43.7969 170.45 43.7969C167.036 43.7969 164.546 45.1115 162.977 47.7407C161.409 50.3237 160.625 53.8293 160.625 58.2574V66.4218C160.625 70.8499 161.409 74.3785 162.977 77.0077C164.546 79.5908 167.036 80.8823 170.45 80.8823C171.834 80.8823 172.987 80.6747 173.909 80.2596C174.878 79.8445 175.708 79.291 176.4 78.5991C177.092 77.9072 177.668 77.0769 178.13 76.1083C178.591 75.1396 179.006 74.1018 179.375 72.9947L186.363 75.3472C185.81 77.0077 185.095 78.576 184.218 80.052C183.388 81.4819 182.35 82.7504 181.105 83.8574C179.859 84.9183 178.36 85.7717 176.608 86.4174C174.901 87.0171 172.871 87.3169 170.519 87.3169Z" fill="white"/>
<path d="M82.515 34.0312L106.195 48.2812V76.75L82.515 90.9687L58.8347 76.7188V48.25L82.515 34.0312ZM82.515 21L48 41.75V83.25L82.485 104L117 83.25V41.75L82.515 21Z" fill="#FFCC00"/>
</svg>
